<svg xmlns="http://www.w3.org/2000/svg" width="640" height="448" viewBox="0 0 320 224" role="img"><title>Bharata hears about Ramas exile</title><rect width="320" height="224" fill="#e9d6b5"/><path d="M27 0V184M294 0V184" stroke="#c99762" stroke-width="19"/><path d="M35 50Q155-10 285 50" fill="none" stroke="#bc8865" stroke-width="8"/><path d="M128 127V66Q160 24 192 66V127Z" fill="#9cb8aa"/><path d="M155 54V127" stroke="#e8c795" stroke-width="8"/><path d="M0 175Q80 148 171 176T320 168V224H0Z" fill="#d5bc9c"/><g transform="translate(94 201) scale(1.05 1.05)"><path d="M-10-6L-13 12M10-6L13 12" stroke="#bd875f" stroke-width="10" stroke-linecap="round"/><path d="M-18 15H-8M8 15H19" stroke="#876744" stroke-width="5" stroke-linecap="round"/><path d="M-17-37Q0-48 17-37L25 7Q0 18-25 7Z" fill="#ce8640"/><path d="M0-35L-8 10M5-24L13 8" stroke="#ffffff" opacity=".28" stroke-width="3" fill="none"/><path d="M-15-57Q0-62 15-57L18-28Q0-16-18-28Z" fill="#bd875f"/><path d="M-15-57L14-28L21-38L-7-60Z" fill="#ce8640"/><path d="M-18-29Q0-22 18-29" fill="none" stroke="#f1ca76" stroke-width="5"/><path d="M-17-49L-22-32L-1-43M17-49L22-32L1-43" stroke="#bd875f" stroke-width="9" fill="none" stroke-linecap="round"/><circle cx="-17" cy="-74" r="4" fill="#bd875f"/><circle cx="17" cy="-74" r="4" fill="#bd875f"/><ellipse cy="-74" rx="16" ry="20" fill="#bd875f"/><path d="M-18-72Q-22-97 0-99Q23-99 20-74L15-79Q1-77-10-87Z" fill="#41483e"/><ellipse cy="-101" rx="9" ry="7" fill="#41483e"/><path d="M-7-77h1M6-77h1" stroke="#2d3d35" stroke-width="2.8" stroke-linecap="round"/><path d="M-4-66Q0-63 4-66" stroke="#785a4b" stroke-width="1.7" fill="none" stroke-linecap="round"/><path d="M-3-88V-83Q0-80 3-83V-88" stroke="#fff5d9" stroke-width="1.8" fill="none"/><path d="M0-88V-82" stroke="#b84635" stroke-width="1.5"/><path d="M-8-55Q0-44 8-55" stroke="#eac579" stroke-width="3" fill="none"/></g><g transform="translate(231 201) scale(-1.04 1.04)"><path d="M-10-6L-13 12M10-6L13 12" stroke="#c58a62" stroke-width="10" stroke-linecap="round"/><path d="M-18 15H-8M8 15H19" stroke="#876744" stroke-width="5" stroke-linecap="round"/><path d="M-17-37Q0-48 17-37L25 7Q0 18-25 7Z" fill="#635f9e"/><path d="M0-35L-8 10M5-24L13 8" stroke="#ffffff" opacity=".28" stroke-width="3" fill="none"/><path d="M-15-58Q0-64 15-58L17-22L-18-22Z" fill="#635f9e"/><path d="M-14-57L20-26L25 7L16 11L-23-52Z" fill="#e8aa65"/><path d="M-17-49L-22-32L-1-43M17-49L22-32L1-43" stroke="#c58a62" stroke-width="9" fill="none" stroke-linecap="round"/><circle cx="-17" cy="-74" r="4" fill="#c58a62"/><circle cx="17" cy="-74" r="4" fill="#c58a62"/><ellipse cy="-74" rx="16" ry="20" fill="#c58a62"/><path d="M-18-54V-78Q-18-99 0-99Q22-99 22-78V-40H12V-79Q1-89-11-78V-54Z" fill="#343f39"/><path d="M-7-77h1M6-77h1" stroke="#2d3d35" stroke-width="2.8" stroke-linecap="round"/><path d="M-4-66Q0-63 4-66" stroke="#785a4b" stroke-width="1.7" fill="none" stroke-linecap="round"/><circle cy="-83" r="2.3" fill="#a13e40"/><circle cx="-17" cy="-66" r="2.5" fill="#edc579"/><circle cx="17" cy="-66" r="2.5" fill="#edc579"/><path d="M-8-55Q0-44 8-55" stroke="#eac579" stroke-width="3" fill="none"/></g><g fill="#6a9275"><path d="M12 221Q-6 185 24 194Q16 199 20 213Q23 180 37 185Q43 206 24 220Z"/><path d="M286 224Q265 204 280 194Q292 204 289 216Q300 185 313 194Q312 217 296 224Z"/></g></svg>
