<svg xmlns="http://www.w3.org/2000/svg" viewBox="0 0 600 600" role="img" aria-labelledby="title desc">
  <title id="title">Diya puzzle image</title>
  <desc id="desc">A simple diya lamp with a warm flame.</desc>
  <rect width="600" height="600" fill="#fff7df"/>
  <circle cx="300" cy="300" r="242" fill="#ffffff" stroke="#1f2f3a" stroke-width="10"/>
  <circle cx="300" cy="300" r="190" fill="#f0bd34" opacity="0.28"/>
  <path d="M160 348 C206 452 394 452 440 348 C390 386 210 386 160 348Z" fill="#e46f2e" stroke="#1f2f3a" stroke-width="10"/>
  <path d="M204 342 C250 308 350 308 396 342 C348 364 252 364 204 342Z" fill="#fff1b8" stroke="#1f2f3a" stroke-width="8"/>
  <path d="M300 142 C362 210 362 278 300 342 C238 278 238 210 300 142Z" fill="#f0bd34" stroke="#1f2f3a" stroke-width="9"/>
  <path d="M300 198 C332 236 332 274 300 310 C268 274 268 236 300 198Z" fill="#c84034"/>
  <circle cx="300" cy="348" r="18" fill="#1f2f3a"/>
  <path d="M112 300 h62 M426 300 h62 M300 112 v62 M300 426 v62" stroke="#087c7c" stroke-width="10" stroke-linecap="round"/>
  <circle cx="134" cy="134" r="22" fill="#3d7d3b"/>
  <circle cx="466" cy="134" r="22" fill="#3d7d3b"/>
  <circle cx="134" cy="466" r="22" fill="#315ca8"/>
  <circle cx="466" cy="466" r="22" fill="#315ca8"/>
</svg>
