<svg xmlns="http://www.w3.org/2000/svg" viewBox="0 0 600 600" role="img" aria-labelledby="title desc">
  <title id="title">Trishul puzzle image</title>
  <desc id="desc">A simple trishul symbol picture.</desc>
  <rect width="600" height="600" fill="#fff7df"/>
  <circle cx="300" cy="300" r="242" fill="#ffffff" stroke="#1f2f3a" stroke-width="10"/>
  <circle cx="300" cy="300" r="192" fill="#f0bd34" opacity="0.25"/>
  <path d="M300 112 V482" stroke="#1f2f3a" stroke-width="24" stroke-linecap="round"/>
  <path d="M300 112 C264 154 264 202 300 242 C336 202 336 154 300 112Z" fill="#e46f2e" stroke="#1f2f3a" stroke-width="9"/>
  <path d="M206 138 C180 220 212 286 300 304 C250 244 248 190 206 138Z" fill="#087c7c" stroke="#1f2f3a" stroke-width="9"/>
  <path d="M394 138 C420 220 388 286 300 304 C350 244 352 190 394 138Z" fill="#087c7c" stroke="#1f2f3a" stroke-width="9"/>
  <path d="M226 314 H374" stroke="#c84034" stroke-width="18" stroke-linecap="round"/>
  <path d="M252 366 H348" stroke="#315ca8" stroke-width="16" stroke-linecap="round"/>
  <circle cx="300" cy="498" r="30" fill="#f0bd34" stroke="#1f2f3a" stroke-width="8"/>
  <path d="M112 300 h62 M426 300 h62 M300 112 v62 M300 426 v62" stroke="#3d7d3b" stroke-width="10" stroke-linecap="round" opacity="0.55"/>
  <circle cx="134" cy="134" r="22" fill="#315ca8"/>
  <circle cx="466" cy="134" r="22" fill="#315ca8"/>
  <circle cx="134" cy="466" r="22" fill="#e46f2e"/>
  <circle cx="466" cy="466" r="22" fill="#e46f2e"/>
</svg>
